/vscmnt/brussel_pixiu_data/_data_brussel/112/vsc11236/PredSimResults/SUBJ09mtu3D/worker5.mot
version=1
nRows=11
nColumns=50
inDegrees=yes
endheader
                time	         pelvis_tilt	         pelvis_list	     pelvis_rotation	           pelvis_tx	           pelvis_ty	           pelvis_tz	       hip_flexion_r	     hip_adduction_r	      hip_rotation_r	        knee_angle_r	       ankle_angle_r	         mtp_angle_r	       hip_flexion_l	     hip_adduction_l	      hip_rotation_l	        knee_angle_l	       ankle_angle_l	         mtp_angle_l	    lumbar_extension	      lumbar_bending	     lumbar_rotation	 ercspn_r/activation	 intobl_r/activation	 extobl_r/activation	    abd_r/activation	    add_r/activation	hamstrings_r/activation	bifemsh_r/activation	glut_max_r/activation	iliopsoas_r/activation	rect_fem_r/activation	  vasti_r/activation	gastroc_r/activation	 soleus_r/activation	tib_ant_r/activation	 ercspn_l/activation	 intobl_l/activation	 extobl_l/activation	    abd_l/activation	    add_l/activation	hamstrings_l/activation	bifemsh_l/activation	glut_max_l/activation	iliopsoas_l/activation	rect_fem_l/activation	  vasti_l/activation	gastroc_l/activation	 soleus_l/activation	tib_ant_l/activation	
          1.19901963	         -3.88597170	         -1.23280193	          8.04162831	          1.48678434	          0.98983308	         -0.00499202	         28.71916431	         -1.16097212	         -7.70976591	         -6.88945392	          4.84894132	          0.24402239	        -12.15623012	         -2.36729123	         -2.96622024	        -12.09335834	          8.38635262	         31.57795987	        -13.80976176	         -0.60565613	         -3.01461612	          0.01000001	          0.14123927	          0.05986179	          0.05956681	          0.16114745	          0.04604516	          0.17619999	          0.07035569	          0.09078922	          0.02983389	          0.01000000	          0.01981589	          0.01439607	          0.28548267	          0.01000006	          0.01000022	          0.03508497	          0.02698896	          0.01611357	          0.08075092	          0.08843240	          0.02486642	          0.01000006	          0.01000002	          0.01000001	          0.12799930	          0.28169122	          0.00999999	
          1.21100982	         -3.90467718	         -1.24387969	          7.91682041	          1.50591833	          0.98789687	         -0.00481172	         28.34178938	         -1.00582175	         -7.55424573	         -8.14573978	          4.54153201	          0.20941551	        -12.77722083	         -2.51198147	         -3.51684506	        -12.91514384	          7.34511172	         33.26571063	        -13.32500276	         -0.22365634	         -2.99438312	          0.01000002	          0.11771543	          0.04989162	          0.13048701	          0.15031150	          0.05638528	          0.14685334	          0.10174343	          0.07566798	          0.02486497	          0.01000000	          0.01651551	          0.01199836	          0.31844610	          0.01000002	          0.01000002	          0.02924154	          0.02249386	          0.01342981	          0.07830701	          0.07370372	          0.02072484	          0.01000004	          0.01000002	          0.01008609	          0.10668061	          0.25756374	          0.00999999	
          1.22300002	         -3.91248466	         -1.26081252	          7.75694314	          1.52518369	          0.98629028	         -0.00456767	         27.93620812	         -0.84508898	         -7.39801793	         -9.35077022	          4.04971760	          0.20674356	        -13.17473351	         -2.67498324	         -4.08951111	        -14.15006715	          6.15228844	         34.96665936	        -12.83275143	          0.17120346	         -2.95756692	          0.01000002	          0.09810955	          0.04158201	          0.18057793	          0.15145047	          0.05608768	          0.12239446	          0.14345414	          0.06306524	          0.02072365	          0.00999999	          0.01376480	          0.00999999	          0.35284133	          0.01000021	          0.01000000	          0.02437127	          0.01874744	          0.01517896	          0.06526615	          0.06142816	          0.01727305	          0.01000005	          0.01000001	          0.01100324	          0.08891262	          0.21764217	          0.00999999	
          1.23499022	         -3.91089777	         -1.27877874	          7.56336883	          1.54426561	          0.98522517	         -0.00426042	         27.64431006	         -0.68998001	         -7.25365836	        -10.74269023	          3.54837208	          0.17454393	        -13.24618701	         -2.85903425	         -4.67896892	        -15.93685112	          4.79417791	         36.59260838	        -12.36973304	          0.57587215	         -2.90121495	          0.01000008	          0.08176909	          0.03465640	          0.21855154	          0.18097151	          0.05141929	          0.10200928	          0.16999849	          0.05256152	          0.01727208	          0.03313857	          0.01147224	          0.01000002	          0.36952259	          0.04621654	          0.01000000	          0.02031216	          0.01562499	          0.04798567	          0.05439591	          0.05119717	          0.01439617	          0.01000011	          0.01000002	          0.01000001	          0.07410394	          0.18139318	          0.00999999	
          1.24698041	         -3.90009949	         -1.28633762	          7.33612692	          1.56299858	          0.98482581	         -0.00390435	         27.46215888	         -0.55328627	         -7.12399156	        -12.35680246	          3.31735162	          0.14058179	        -12.91446026	         -3.06156312	         -5.28861036	        -18.38921322	          3.27816739	         37.96015675	        -11.95442490	          0.97834656	         -2.82386310	          0.01000007	          0.06815019	          0.02888426	          0.24578930	          0.20304764	          0.05100759	          0.08501932	          0.18471916	          0.04380724	          0.01439538	          0.08497696	          0.01000004	          0.01000010	          0.36939722	          0.06757587	          0.01000000	          0.01692911	          0.01302260	          0.10011638	          0.04533623	          0.05503957	          0.01199844	          0.01439613	          0.01000000	          0.00999999	          0.06176169	          0.15118157	          0.01000000	
          1.25897061	         -3.88198837	         -1.26936977	          7.07320575	          1.58129072	          0.98518958	         -0.00353118	         27.25969781	         -0.43435612	         -6.99467394	        -13.94001135	          3.30827696	          0.11139813	        -12.12638044	         -3.27978267	         -5.93961153	        -21.58229297	          1.66788613	         38.67698726	        -11.59507708	          1.36488778	         -2.72227362	          0.01000008	          0.05679956	          0.02407350	          0.25261123	          0.21587569	          0.05447867	          0.07085909	          0.18280025	          0.03651100	          0.01199783	          0.12405861	          0.01000047	          0.01000654	          0.35514354	          0.05632153	          0.01000000	          0.01410954	          0.01085365	          0.14505065	          0.03778549	          0.04587264	          0.01000006	          0.01199848	          0.01000000	          0.00999999	          0.05147509	          0.12600180	          0.00999999	
          1.27096081	         -3.85758064	         -1.21351874	          6.77058361	          1.59911269	          0.98631585	         -0.00317135	         26.92791733	         -0.33413661	         -6.84427091	        -15.28819935	          3.47267173	          0.09245711	        -10.86923179	         -3.51599036	         -6.61696093	        -25.53037928	          0.01487497	         38.35456607	        -11.29426501	          1.72177559	         -2.59201441	          0.01000002	          0.04733941	          0.02006398	          0.23666509	          0.21873003	          0.05778341	          0.05905729	          0.15511695	          0.03042998	          0.00999999	          0.15527066	          0.01000003	          0.01000000	          0.33353326	          0.04694101	          0.01000005	          0.04964535	          0.00999999	          0.17731383	          0.03654721	          0.03823243	          0.01000000	          0.01000012	          0.01000000	          0.00999999	          0.04290175	          0.10501580	          0.02183132	
          1.28295100	         -3.82817232	         -1.11357526	          6.42906785	          1.61642796	          0.98809864	         -0.00282946	         26.42560163	         -0.25237165	         -6.64924830	        -16.31235152	          3.76174655	          0.08695490	         -9.17719678	         -3.77478916	         -7.27283186	        -30.12819928	         -1.68697758	         36.76404920	        -11.05614910	          2.04023431	         -2.43706229	          0.01000015	          0.03945489	          0.01672226	          0.21271958	          0.18229985	          0.05399635	          0.04922112	          0.12928174	          0.02536177	          0.01000006	          0.18642250	          0.01000011	          0.01000001	          0.30213548	          0.05550481	          0.05791734	          0.10079101	          0.00999999	          0.15645834	          0.03046017	          0.03186472	          0.00999999	          0.01000005	          0.01000000	          0.00999999	          0.03575633	          0.08752508	          0.07070188	
          1.29494120	         -3.79425593	         -0.97443988	          6.05609310	          1.63315307	          0.99037560	         -0.00247891	         25.77001268	         -0.18588338	         -6.39163221	        -17.02893445	          4.16485428	          0.12163648	         -7.12720959	         -4.05285608	         -7.84179527	        -35.21934083	         -3.16395752	         33.51566779	        -10.89265845	          2.31325059	         -2.26095014	          0.01000003	          0.03288355	          0.01393712	          0.18527626	          0.15193723	          0.04852837	          0.04102320	          0.10774948	          0.02113769	          0.01000006	          0.20721307	          0.01000004	          0.01000000	          0.26992050	          0.09512260	          0.10318773	          0.15729434	          0.01363867	          0.13039971	          0.02538694	          0.02655757	          0.01000026	          0.01000003	          0.01000010	          0.00999999	          0.02980100	          0.07294750	          0.17726281	
          1.30693139	         -3.75666034	         -0.81582894	          5.64990407	          1.64923557	          0.99295809	         -0.00211841	         25.00101774	         -0.12190720	         -6.07979981	        -17.48581184	          4.61601774	          0.21732409	         -4.84984379	         -4.28254053	         -8.19339856	        -40.53630674	         -3.98428251	         28.95212952	        -10.80893434	          2.55219466	         -2.05664445	          0.01000002	          0.02740669	          0.01161585	          0.15627722	          0.12663160	          0.04262047	          0.03419066	          0.08980348	          0.01761714	          0.01000005	          0.20763344	          0.01000004	          0.01000000	          0.23664904	          0.10041978	          0.10903503	          0.18589872	          0.01426440	          0.10868122	          0.02115868	          0.02863019	          0.01137473	          0.01000002	          0.01000002	          0.00999999	          0.03155413	          0.06079786	          0.18746481	
          1.31892159	         -3.71614655	         -0.65609037	          5.20833032	          1.66470179	          0.99573447	         -0.00178259	         24.16782712	         -0.05299516	         -5.72752443	        -17.76229532	          5.07227249	          0.36926879	         -2.46925498	         -4.38987118	         -8.30807968	        -45.77053905	         -3.81540413	         24.82952936	        -10.80007187	          2.77629341	         -1.82170291	          0.01000006	          0.02284202	          0.01000000	          0.13501764	          0.10554071	          0.04558232	          0.02849610	          0.07484646	          0.01468295	          0.01000007	          0.19558159	          0.01000004	          0.01000000	          0.20651997	          0.08369466	          0.11156691	          0.18820513	          0.01188862	          0.09058002	          0.01763464	          0.04355898	          0.00999999	          0.01000041	          0.01811938	          0.00999999	          0.03285586	          0.05067179	          0.19361463	
